<?xml version="1.0" encoding="UTF-8"?>
<svg xmlns="http://www.w3.org/2000/svg" xmlns:xlink="http://www.w3.org/1999/xlink" width="44px" height="30px" viewBox="0 0 44 30" version="1.1">
<g id="surface1">
<path style=" stroke:none;fill-rule:evenodd;fill:rgb(51.764706%,80.784314%,95.686275%);fill-opacity:1;" d="M 21.625 0.507812 C 21.832031 0.515625 22.167969 0.515625 22.375 0.507812 C 22.582031 0.5 22.414062 0.496094 22 0.496094 C 21.585938 0.496094 21.417969 0.5 21.625 0.507812 M 19.351562 3.355469 C 19.480469 3.363281 19.675781 3.363281 19.792969 3.355469 C 19.90625 3.347656 19.804688 3.34375 19.5625 3.34375 C 19.320312 3.34375 19.226562 3.347656 19.351562 3.355469 M 19.390625 3.835938 C 19.496094 3.84375 19.660156 3.84375 19.753906 3.835938 C 19.851562 3.828125 19.761719 3.824219 19.5625 3.824219 C 19.359375 3.824219 19.28125 3.828125 19.390625 3.835938 M 9.210938 8.101562 C 9.148438 8.140625 9.09375 8.183594 9.09375 8.195312 C 9.09375 8.207031 9.128906 8.191406 9.175781 8.160156 C 9.273438 8.089844 9.367188 8.082031 9.328125 8.148438 C 9.308594 8.179688 9.320312 8.179688 9.359375 8.144531 C 9.417969 8.097656 9.414062 8.027344 9.355469 8.027344 C 9.34375 8.027344 9.277344 8.058594 9.210938 8.101562 M 8.488281 8.453125 C 8.25 8.59375 8.238281 8.628906 8.472656 8.507812 C 8.5625 8.460938 8.617188 8.449219 8.617188 8.476562 C 8.617188 8.503906 8.632812 8.503906 8.671875 8.472656 C 8.703125 8.445312 8.714844 8.40625 8.703125 8.386719 C 8.6875 8.363281 8.703125 8.355469 8.742188 8.371094 C 8.777344 8.386719 8.792969 8.382812 8.78125 8.359375 C 8.75 8.308594 8.734375 8.3125 8.488281 8.453125 M 9.925781 9.183594 C 9.957031 9.234375 9.960938 9.253906 9.96875 9.40625 C 9.972656 9.46875 9.992188 9.507812 10.03125 9.507812 C 10.074219 9.507812 10.078125 9.519531 10.042969 9.585938 C 10.011719 9.648438 9.980469 9.660156 9.886719 9.644531 C 9.824219 9.632812 9.792969 9.632812 9.816406 9.640625 C 9.882812 9.667969 9.835938 9.730469 9.75 9.730469 C 9.65625 9.730469 9.660156 9.789062 9.761719 9.839844 C 9.839844 9.878906 9.84375 9.878906 9.773438 9.824219 C 9.734375 9.792969 9.722656 9.765625 9.746094 9.765625 C 9.855469 9.765625 10.105469 9.613281 10.109375 9.542969 C 10.113281 9.5 10.09375 9.46875 10.0625 9.46875 C 10.011719 9.46875 9.992188 9.363281 10.007812 9.203125 C 10.011719 9.164062 9.988281 9.136719 9.957031 9.136719 C 9.917969 9.136719 9.90625 9.152344 9.925781 9.183594 M 10.402344 9.234375 C 10.386719 9.25 10.375 9.300781 10.375 9.347656 C 10.375 9.40625 10.347656 9.445312 10.285156 9.46875 C 10.15625 9.519531 10.171875 9.546875 10.304688 9.5 C 10.363281 9.480469 10.414062 9.445312 10.414062 9.425781 C 10.414062 9.40625 10.460938 9.394531 10.519531 9.402344 C 10.582031 9.414062 10.621094 9.40625 10.609375 9.390625 C 10.601562 9.371094 10.613281 9.359375 10.640625 9.359375 C 10.667969 9.359375 10.632812 9.324219 10.566406 9.285156 C 10.433594 9.203125 10.433594 9.203125 10.402344 9.234375 M 21.515625 9.609375 C 21.621094 9.617188 21.792969 9.617188 21.898438 9.609375 C 22.003906 9.601562 21.917969 9.59375 21.707031 9.59375 C 21.496094 9.59375 21.410156 9.601562 21.515625 9.609375 M 23.578125 9.605469 C 23.976562 9.632812 24.382812 9.632812 24.382812 9.609375 C 24.382812 9.59375 24.164062 9.582031 23.898438 9.585938 C 23.628906 9.589844 23.484375 9.597656 23.578125 9.605469 M 25.472656 9.609375 C 25.789062 9.617188 25.847656 9.628906 25.863281 9.683594 C 25.875 9.730469 25.878906 9.726562 25.882812 9.664062 C 25.886719 9.582031 25.878906 9.582031 25.492188 9.589844 L 25.097656 9.597656 L 25.472656 9.609375 M 27.128906 9.644531 C 27.085938 9.703125 27.085938 9.703125 27.136719 9.664062 C 27.171875 9.636719 27.363281 9.617188 27.648438 9.609375 L 28.105469 9.597656 L 27.640625 9.589844 C 27.238281 9.582031 27.171875 9.589844 27.128906 9.644531 M 29.308594 9.609375 C 29.546875 9.613281 29.925781 9.613281 30.152344 9.609375 C 30.378906 9.601562 30.183594 9.597656 29.71875 9.597656 C 29.253906 9.597656 29.070312 9.601562 29.308594 9.609375 M 29.492188 10.265625 C 29.480469 10.296875 29.480469 10.335938 29.492188 10.347656 C 29.507812 10.359375 29.515625 10.34375 29.515625 10.308594 C 29.515625 10.257812 29.570312 10.246094 29.855469 10.238281 L 30.195312 10.226562 L 29.855469 10.21875 C 29.578125 10.210938 29.511719 10.21875 29.492188 10.265625 M 10.78125 10.335938 C 10.78125 10.371094 10.769531 10.390625 10.753906 10.382812 C 10.738281 10.371094 10.722656 10.40625 10.71875 10.453125 C 10.714844 10.515625 10.734375 10.542969 10.773438 10.539062 C 10.808594 10.539062 10.816406 10.527344 10.792969 10.519531 C 10.765625 10.507812 10.757812 10.476562 10.769531 10.445312 C 10.785156 10.398438 10.796875 10.398438 10.820312 10.4375 C 10.84375 10.472656 10.851562 10.460938 10.84375 10.40625 C 10.828125 10.300781 10.78125 10.25 10.78125 10.335938 M 11.203125 10.320312 C 11.1875 10.339844 11.203125 10.347656 11.238281 10.335938 C 11.308594 10.308594 11.40625 10.382812 11.382812 10.445312 C 11.371094 10.472656 11.402344 10.523438 11.449219 10.5625 C 11.492188 10.601562 11.511719 10.609375 11.484375 10.582031 C 11.460938 10.550781 11.441406 10.5 11.441406 10.46875 C 11.441406 10.351562 11.253906 10.234375 11.203125 10.320312 M 10.925781 10.34375 C 10.925781 10.359375 10.960938 10.398438 11 10.421875 C 11.039062 10.449219 11.074219 10.492188 11.074219 10.523438 C 11.074219 10.605469 11.140625 10.625 11.207031 10.5625 C 11.261719 10.503906 11.261719 10.496094 11.203125 10.4375 C 11.140625 10.378906 11.136719 10.378906 11.15625 10.460938 C 11.167969 10.503906 11.160156 10.550781 11.144531 10.5625 C 11.125 10.574219 11.109375 10.5625 11.109375 10.53125 C 11.109375 10.503906 11.070312 10.441406 11.019531 10.394531 C 10.96875 10.347656 10.925781 10.324219 10.925781 10.34375 M 11.21875 10.710938 C 11.21875 10.753906 11.25 10.765625 11.316406 10.757812 C 11.460938 10.742188 11.472656 10.652344 11.332031 10.652344 C 11.253906 10.652344 11.21875 10.671875 11.21875 10.710938 M 18.601562 10.867188 C 18.777344 10.871094 19.058594 10.871094 19.222656 10.867188 C 19.390625 10.859375 19.246094 10.855469 18.902344 10.855469 C 18.558594 10.855469 18.421875 10.859375 18.601562 10.867188 M 29.316406 11.171875 C 29.328125 11.191406 29.484375 11.207031 29.664062 11.207031 C 29.84375 11.207031 30 11.191406 30.011719 11.171875 C 30.027344 11.148438 29.902344 11.132812 29.664062 11.132812 C 29.425781 11.132812 29.300781 11.148438 29.316406 11.171875 M 18.136719 11.566406 C 18.125 11.578125 18.113281 11.609375 18.113281 11.628906 C 18.113281 11.652344 18.128906 11.648438 18.144531 11.621094 C 18.167969 11.585938 18.316406 11.578125 18.785156 11.585938 C 19.121094 11.59375 19.398438 11.585938 19.398438 11.570312 C 19.398438 11.535156 18.171875 11.53125 18.136719 11.566406 M 29.148438 11.863281 C 29.148438 11.878906 29.285156 11.886719 29.453125 11.882812 C 30 11.863281 30.054688 11.851562 29.597656 11.84375 C 29.351562 11.839844 29.148438 11.851562 29.148438 11.863281 M 15.070312 12.3125 L 15.085938 12.558594 L 15.097656 12.339844 C 15.105469 12.21875 15.097656 12.109375 15.082031 12.09375 C 15.066406 12.074219 15.058594 12.175781 15.070312 12.3125 M 7.238281 13.34375 C 7.292969 13.40625 7.300781 13.464844 7.289062 13.597656 C 7.273438 13.703125 7.28125 13.75 7.300781 13.71875 C 7.363281 13.617188 7.335938 13.40625 7.25 13.332031 C 7.167969 13.261719 7.167969 13.261719 7.238281 13.34375 M 0.492188 15.035156 C 0.492188 15.261719 0.496094 15.347656 0.503906 15.230469 C 0.511719 15.113281 0.511719 14.929688 0.503906 14.824219 C 0.496094 14.71875 0.492188 14.8125 0.492188 15.035156 M 43.972656 15.695312 C 43.972656 15.914062 44.003906 15.953125 44.023438 15.761719 C 44.03125 15.699219 44.023438 15.613281 44.003906 15.566406 C 43.980469 15.503906 43.972656 15.539062 43.972656 15.695312 M 33.222656 17.585938 C 33.113281 17.699219 33.007812 17.78125 32.988281 17.765625 C 32.96875 17.753906 32.964844 17.761719 32.980469 17.789062 C 33 17.824219 33.074219 17.773438 33.222656 17.621094 C 33.34375 17.503906 33.441406 17.402344 33.441406 17.394531 C 33.441406 17.371094 33.40625 17.398438 33.222656 17.585938 M 27.972656 18.136719 C 27.988281 18.152344 28.394531 18.160156 28.878906 18.152344 L 29.753906 18.144531 L 28.847656 18.125 C 28.351562 18.117188 27.957031 18.121094 27.972656 18.136719 M 19.277344 21.925781 C 19.445312 21.933594 19.710938 21.933594 19.867188 21.925781 C 20.019531 21.917969 19.882812 21.914062 19.5625 21.914062 C 19.238281 21.914062 19.113281 21.917969 19.277344 21.925781 M 19.371094 22.40625 C 19.464844 22.414062 19.621094 22.414062 19.71875 22.40625 C 19.8125 22.398438 19.734375 22.394531 19.542969 22.394531 C 19.351562 22.394531 19.273438 22.398438 19.371094 22.40625 M 34.832031 26.617188 C 34.703125 26.683594 34.609375 26.742188 34.625 26.742188 C 34.664062 26.746094 35.089844 26.527344 35.089844 26.503906 C 35.089844 26.480469 35.097656 26.476562 34.832031 26.617188 M 21.84375 29.507812 C 21.929688 29.515625 22.070312 29.515625 22.15625 29.507812 C 22.242188 29.5 22.171875 29.496094 22 29.496094 C 21.828125 29.496094 21.757812 29.5 21.84375 29.507812 "/>
<path style=" stroke:none;fill-rule:evenodd;fill:rgb(45.490196%,79.607843%,95.294118%);fill-opacity:1;" d="M 20.460938 0.0351562 C 20.460938 0.046875 20.332031 0.0585938 20.175781 0.0625 C 19.894531 0.0664062 19.464844 0.09375 19.140625 0.128906 C 19.050781 0.140625 18.867188 0.15625 18.738281 0.167969 C 18.441406 0.191406 18.347656 0.199219 17.800781 0.277344 C 17.722656 0.289062 17.574219 0.308594 17.472656 0.320312 C 17.269531 0.339844 17.230469 0.347656 17.066406 0.378906 C 16.929688 0.410156 16.703125 0.445312 16.535156 0.464844 C 16.464844 0.472656 16.367188 0.488281 16.316406 0.5 C 16.265625 0.511719 16.191406 0.53125 16.152344 0.539062 C 16.113281 0.542969 16.035156 0.558594 15.988281 0.570312 C 15.878906 0.597656 15.804688 0.609375 15.601562 0.648438 C 15.425781 0.679688 15.355469 0.695312 15.246094 0.722656 C 15.199219 0.734375 15.121094 0.75 15.070312 0.761719 C 15.019531 0.773438 14.914062 0.796875 14.832031 0.820312 C 14.75 0.839844 14.660156 0.863281 14.628906 0.871094 C 13.65625 1.085938 11.957031 1.632812 10.789062 2.101562 C 8.894531 2.871094 7.128906 3.859375 5.648438 4.992188 C 5.394531 5.183594 5.179688 5.351562 5.171875 5.363281 C 5.160156 5.375 5.019531 5.492188 4.859375 5.625 C 4.253906 6.117188 3.496094 6.875 2.933594 7.546875 C 1.5 9.257812 0.636719 10.96875 0.222656 12.910156 C 0.128906 13.355469 0.105469 13.496094 0.0507812 13.964844 C 0.015625 14.257812 0.0195312 15.828125 0.0546875 16.109375 C 0.0703125 16.230469 0.0859375 16.375 0.0898438 16.425781 C 0.0976562 16.476562 0.113281 16.566406 0.125 16.628906 C 0.136719 16.6875 0.152344 16.773438 0.160156 16.820312 C 0.171875 16.863281 0.191406 16.980469 0.207031 17.078125 C 0.222656 17.175781 0.238281 17.265625 0.238281 17.273438 C 0.242188 17.285156 0.257812 17.34375 0.273438 17.40625 C 0.34375 17.691406 0.5625 18.453125 0.605469 18.550781 C 0.632812 18.613281 0.664062 18.703125 0.679688 18.753906 C 0.691406 18.804688 0.746094 18.933594 0.792969 19.042969 C 0.839844 19.148438 0.878906 19.246094 0.878906 19.257812 C 0.878906 19.292969 1.398438 20.328125 1.53125 20.546875 C 1.636719 20.730469 2.054688 21.375 2.273438 21.691406 C 2.355469 21.808594 2.898438 22.492188 3.011719 22.621094 C 3.601562 23.277344 3.746094 23.429688 4.148438 23.804688 C 4.351562 23.996094 4.949219 24.515625 5.132812 24.660156 C 5.496094 24.949219 5.636719 25.058594 5.902344 25.25 C 6.238281 25.492188 6.949219 25.972656 7.132812 26.078125 C 8.355469 26.800781 8.539062 26.898438 9.222656 27.230469 C 10.300781 27.75 11.304688 28.15625 12.355469 28.5 C 12.710938 28.613281 13.023438 28.71875 13.054688 28.730469 C 13.082031 28.742188 13.132812 28.757812 13.164062 28.765625 C 13.195312 28.769531 13.433594 28.835938 13.695312 28.910156 C 14.191406 29.046875 15 29.246094 15.195312 29.28125 C 15.257812 29.292969 15.367188 29.316406 15.4375 29.332031 C 15.507812 29.351562 15.613281 29.375 15.675781 29.386719 C 15.734375 29.394531 15.828125 29.414062 15.875 29.425781 C 15.925781 29.4375 16.019531 29.453125 16.078125 29.464844 C 16.140625 29.476562 16.230469 29.492188 16.28125 29.5 C 16.402344 29.523438 16.605469 29.558594 16.738281 29.578125 C 16.800781 29.589844 16.890625 29.605469 16.941406 29.613281 C 16.992188 29.625 17.085938 29.636719 17.152344 29.640625 C 17.214844 29.644531 17.269531 29.65625 17.269531 29.667969 C 17.269531 29.675781 17.324219 29.6875 17.390625 29.6875 C 17.453125 29.691406 17.582031 29.703125 17.671875 29.71875 C 17.765625 29.730469 17.90625 29.75 17.984375 29.761719 C 18.066406 29.773438 18.199219 29.789062 18.277344 29.796875 C 18.359375 29.800781 18.425781 29.808594 18.425781 29.8125 C 18.425781 29.816406 18.515625 29.828125 18.625 29.835938 C 18.738281 29.84375 18.910156 29.859375 19.011719 29.871094 C 19.484375 29.917969 19.730469 29.9375 19.992188 29.941406 C 20.148438 29.941406 20.277344 29.953125 20.277344 29.964844 C 20.277344 29.996094 23.691406 29.996094 23.742188 29.96875 C 23.761719 29.957031 23.902344 29.945312 24.050781 29.941406 C 24.316406 29.933594 24.488281 29.917969 24.988281 29.867188 C 25.109375 29.855469 25.289062 29.839844 25.390625 29.832031 C 25.492188 29.828125 25.574219 29.816406 25.574219 29.8125 C 25.574219 29.808594 25.640625 29.800781 25.722656 29.796875 C 25.800781 29.789062 25.933594 29.773438 26.015625 29.761719 C 26.398438 29.707031 26.5 29.695312 26.609375 29.691406 C 26.675781 29.6875 26.730469 29.675781 26.730469 29.667969 C 26.730469 29.65625 26.785156 29.644531 26.847656 29.644531 C 26.914062 29.640625 27.027344 29.625 27.097656 29.613281 C 27.167969 29.597656 27.257812 29.578125 27.296875 29.574219 C 27.339844 29.566406 27.429688 29.550781 27.5 29.539062 C 27.570312 29.527344 27.679688 29.511719 27.738281 29.503906 C 27.800781 29.496094 27.875 29.480469 27.902344 29.46875 C 27.933594 29.457031 28.023438 29.4375 28.101562 29.429688 C 28.179688 29.417969 28.253906 29.398438 28.269531 29.390625 C 28.28125 29.382812 28.375 29.363281 28.472656 29.351562 C 28.574219 29.335938 28.664062 29.320312 28.675781 29.3125 C 28.6875 29.304688 28.859375 29.265625 29.058594 29.222656 C 29.253906 29.179688 29.441406 29.136719 29.476562 29.128906 C 30.484375 28.902344 32.601562 28.210938 33.496094 27.816406 C 34.148438 27.53125 34.921875 27.171875 35.183594 27.039062 C 35.730469 26.753906 35.988281 26.617188 36.007812 26.59375 C 36.015625 26.582031 36.140625 26.507812 36.28125 26.429688 C 36.75 26.171875 38.125 25.277344 38.242188 25.152344 C 38.253906 25.144531 38.359375 25.0625 38.480469 24.972656 C 39.199219 24.4375 40.261719 23.453125 40.847656 22.785156 C 40.976562 22.636719 41.109375 22.484375 41.140625 22.453125 C 41.171875 22.421875 41.253906 22.320312 41.324219 22.230469 C 41.394531 22.140625 41.46875 22.039062 41.496094 22.011719 C 42.15625 21.167969 42.867188 19.929688 43.246094 18.957031 C 43.5 18.308594 43.601562 17.972656 43.835938 16.964844 C 43.84375 16.929688 43.859375 16.828125 43.871094 16.742188 C 43.882812 16.660156 43.898438 16.523438 43.910156 16.441406 C 43.921875 16.359375 43.9375 16.234375 43.941406 16.15625 C 43.945312 16.082031 43.957031 16.007812 43.972656 15.996094 C 43.984375 15.984375 43.988281 15.917969 43.976562 15.855469 C 43.960938 15.761719 43.964844 15.75 44 15.796875 C 44.035156 15.839844 44.039062 15.839844 44.019531 15.777344 C 43.980469 15.652344 43.957031 15.46875 43.992188 15.550781 C 44.027344 15.632812 44.023438 14.726562 43.988281 14.539062 C 43.96875 14.4375 43.96875 14.425781 44 14.480469 C 44.03125 14.542969 44.035156 14.539062 44.015625 14.445312 C 44.003906 14.382812 43.988281 14.292969 43.972656 14.246094 C 43.957031 14.179688 43.964844 14.164062 44 14.183594 C 44.035156 14.207031 44.035156 14.195312 44.003906 14.136719 C 43.980469 14.09375 43.953125 13.988281 43.945312 13.898438 C 43.921875 13.703125 43.878906 13.40625 43.835938 13.167969 C 43.824219 13.097656 43.804688 12.996094 43.800781 12.945312 C 43.792969 12.894531 43.777344 12.828125 43.765625 12.800781 C 43.753906 12.769531 43.738281 12.703125 43.730469 12.652344 C 43.679688 12.363281 43.398438 11.472656 43.203125 11.003906 C 42.964844 10.421875 42.644531 9.785156 42.367188 9.339844 C 42.183594 9.046875 41.742188 8.375 41.710938 8.335938 C 41.6875 8.316406 41.574219 8.167969 41.453125 8.011719 C 40.933594 7.335938 40.0625 6.410156 39.449219 5.882812 C 39.320312 5.773438 39.183594 5.652344 39.140625 5.617188 C 38.433594 4.988281 37.367188 4.25 36.023438 3.457031 C 35.050781 2.878906 32.929688 1.9375 31.753906 1.554688 C 31.496094 1.46875 30.554688 1.175781 30.507812 1.164062 C 30.476562 1.160156 30.292969 1.109375 30.101562 1.058594 C 29.785156 0.96875 29.121094 0.804688 28.917969 0.761719 C 28.875 0.75 28.800781 0.734375 28.753906 0.722656 C 28.710938 0.710938 28.636719 0.695312 28.589844 0.683594 C 28.546875 0.671875 28.46875 0.65625 28.417969 0.648438 C 28.324219 0.632812 28.039062 0.574219 27.867188 0.535156 C 27.816406 0.527344 27.726562 0.507812 27.664062 0.5 C 27.355469 0.453125 27.292969 0.445312 27.207031 0.425781 C 27.15625 0.414062 27.058594 0.398438 26.988281 0.386719 C 26.917969 0.375 26.808594 0.359375 26.75 0.347656 C 26.6875 0.335938 26.582031 0.320312 26.511719 0.3125 C 26.3125 0.292969 26.105469 0.265625 25.921875 0.238281 C 25.832031 0.226562 25.691406 0.210938 25.613281 0.203125 C 25.53125 0.199219 25.464844 0.191406 25.464844 0.1875 C 25.464844 0.183594 25.382812 0.171875 25.28125 0.167969 C 25.179688 0.160156 25 0.144531 24.878906 0.132812 C 24.324219 0.078125 24.125 0.0664062 23.84375 0.0625 C 23.675781 0.0585938 23.539062 0.046875 23.539062 0.0351562 C 23.539062 0.0273438 22.847656 0.015625 22 0.015625 C 21.152344 0.015625 20.460938 0.0234375 20.460938 0.0351562 M 21.265625 0.492188 C 21.257812 0.503906 20.984375 0.523438 20.660156 0.535156 C 19.714844 0.578125 19.597656 0.582031 19.597656 0.589844 C 19.597656 0.59375 19.492188 0.605469 19.359375 0.609375 C 19.230469 0.617188 19.039062 0.628906 18.9375 0.640625 C 18.835938 0.652344 18.671875 0.675781 18.570312 0.6875 C 18.472656 0.699219 18.324219 0.714844 18.242188 0.71875 C 18.160156 0.726562 18.09375 0.734375 18.09375 0.738281 C 18.09375 0.742188 18.027344 0.75 17.949219 0.757812 C 17.777344 0.773438 17.597656 0.800781 17.179688 0.871094 C 17.117188 0.882812 17.019531 0.898438 16.957031 0.902344 C 16.898438 0.910156 16.789062 0.929688 16.71875 0.941406 C 16.648438 0.957031 16.558594 0.972656 16.519531 0.976562 C 16.476562 0.984375 16.355469 1.007812 16.242188 1.03125 C 15.996094 1.082031 15.84375 1.109375 15.75 1.128906 C 15.707031 1.136719 15.632812 1.152344 15.582031 1.164062 C 15.53125 1.171875 15.449219 1.191406 15.398438 1.203125 C 15.347656 1.214844 15.269531 1.230469 15.226562 1.238281 C 15.179688 1.25 15.105469 1.265625 15.0625 1.273438 C 14.578125 1.378906 14.160156 1.492188 13.238281 1.765625 C 12.863281 1.875 12.410156 2.023438 12.226562 2.089844 C 12.046875 2.15625 11.855469 2.222656 11.808594 2.238281 C 11.757812 2.253906 11.488281 2.355469 11.210938 2.464844 C 7.539062 3.914062 4.535156 6.09375 2.695312 8.636719 C 2.519531 8.882812 2.363281 9.105469 2.351562 9.136719 C 2.339844 9.167969 2.304688 9.21875 2.273438 9.253906 C 2.1875 9.351562 1.640625 10.332031 1.472656 10.691406 C 1.03125 11.648438 0.683594 12.8125 0.601562 13.613281 C 0.589844 13.703125 0.578125 13.835938 0.566406 13.910156 C 0.492188 14.523438 0.472656 15.214844 0.523438 15.757812 C 0.539062 15.929688 0.554688 16.136719 0.558594 16.210938 C 0.5625 16.289062 0.574219 16.351562 0.585938 16.351562 C 0.597656 16.351562 0.609375 16.402344 0.609375 16.46875 C 0.613281 16.535156 0.625 16.640625 0.636719 16.703125 C 0.648438 16.761719 0.667969 16.863281 0.679688 16.921875 C 0.691406 16.984375 0.714844 17.09375 0.734375 17.164062 C 0.75 17.234375 0.773438 17.335938 0.78125 17.386719 C 0.808594 17.539062 0.851562 17.699219 0.875 17.738281 C 0.886719 17.757812 0.898438 17.796875 0.902344 17.824219 C 0.921875 17.941406 1.152344 18.609375 1.285156 18.921875 C 1.503906 19.445312 1.875 20.164062 2.058594 20.425781 C 2.09375 20.480469 2.125 20.535156 2.125 20.546875 C 2.125 20.570312 2.675781 21.386719 2.785156 21.527344 C 3.386719 22.289062 3.617188 22.550781 4.144531 23.082031 C 4.917969 23.863281 5.722656 24.523438 6.785156 25.246094 C 7.230469 25.550781 7.589844 25.777344 8.160156 26.101562 C 8.445312 26.265625 9.222656 26.679688 9.257812 26.6875 C 9.277344 26.691406 9.417969 26.753906 9.566406 26.832031 C 10.640625 27.382812 13.003906 28.242188 14.136719 28.5 C 14.15625 28.503906 14.195312 28.519531 14.226562 28.53125 C 14.289062 28.558594 15.367188 28.8125 15.511719 28.835938 C 15.558594 28.84375 15.640625 28.859375 15.683594 28.871094 C 15.824219 28.90625 15.890625 28.917969 16.058594 28.945312 C 16.152344 28.960938 16.257812 28.980469 16.296875 28.988281 C 16.339844 28.996094 16.414062 29.011719 16.464844 29.019531 C 16.515625 29.03125 16.597656 29.046875 16.648438 29.058594 C 16.695312 29.070312 16.796875 29.085938 16.867188 29.09375 C 16.988281 29.109375 17.140625 29.132812 17.34375 29.167969 C 17.527344 29.199219 17.730469 29.226562 17.894531 29.242188 C 17.984375 29.25 18.128906 29.265625 18.214844 29.277344 C 18.300781 29.289062 18.433594 29.304688 18.507812 29.3125 C 18.582031 29.324219 18.726562 29.339844 18.828125 29.355469 C 18.929688 29.367188 19.109375 29.382812 19.230469 29.390625 C 19.351562 29.398438 19.453125 29.40625 19.453125 29.410156 C 19.453125 29.414062 19.558594 29.421875 19.691406 29.429688 C 19.820312 29.433594 20.152344 29.449219 20.421875 29.46875 C 21.066406 29.503906 22.941406 29.503906 23.578125 29.464844 C 23.847656 29.449219 24.179688 29.433594 24.308594 29.425781 C 24.441406 29.417969 24.546875 29.410156 24.546875 29.410156 C 24.546875 29.40625 24.65625 29.398438 24.785156 29.390625 C 25.019531 29.375 25.109375 29.367188 25.519531 29.3125 C 25.632812 29.300781 25.78125 29.285156 25.851562 29.277344 C 25.921875 29.273438 25.976562 29.265625 25.976562 29.257812 C 25.976562 29.253906 26.035156 29.246094 26.105469 29.242188 C 26.175781 29.234375 26.234375 29.226562 26.234375 29.222656 C 26.234375 29.21875 26.292969 29.210938 26.363281 29.203125 C 26.554688 29.1875 26.808594 29.152344 26.933594 29.125 C 26.992188 29.109375 27.082031 29.097656 27.132812 29.09375 C 27.183594 29.089844 27.28125 29.074219 27.351562 29.058594 C 27.488281 29.03125 27.574219 29.015625 27.71875 28.988281 C 27.828125 28.972656 28.074219 28.925781 28.179688 28.902344 C 28.21875 28.894531 28.292969 28.878906 28.34375 28.871094 C 28.394531 28.859375 28.507812 28.835938 28.601562 28.816406 C 28.691406 28.792969 28.800781 28.769531 28.847656 28.761719 C 28.894531 28.75 28.957031 28.734375 28.996094 28.726562 C 29.03125 28.71875 29.230469 28.667969 29.441406 28.617188 C 30.066406 28.464844 31.5625 28.023438 31.773438 27.925781 C 31.8125 27.910156 31.976562 27.847656 32.136719 27.796875 C 32.949219 27.527344 34.453125 26.863281 35.332031 26.382812 C 36.363281 25.820312 37.15625 25.324219 37.949219 24.734375 C 39.464844 23.613281 40.8125 22.210938 41.707031 20.824219 C 41.804688 20.671875 41.917969 20.503906 41.953125 20.449219 C 41.988281 20.394531 42.019531 20.339844 42.019531 20.328125 C 42.019531 20.316406 42.0625 20.238281 42.117188 20.152344 C 42.265625 19.910156 42.632812 19.15625 42.789062 18.761719 C 42.988281 18.253906 43.175781 17.621094 43.289062 17.089844 C 43.296875 17.039062 43.3125 16.964844 43.324219 16.921875 C 43.394531 16.597656 43.402344 16.550781 43.472656 15.871094 C 43.503906 15.59375 43.5 14.464844 43.46875 14.167969 C 43.453125 14.035156 43.441406 13.863281 43.4375 13.789062 C 43.433594 13.710938 43.425781 13.648438 43.414062 13.648438 C 43.402344 13.648438 43.390625 13.597656 43.390625 13.53125 C 43.386719 13.464844 43.375 13.351562 43.359375 13.28125 C 43.171875 12.285156 42.855469 11.339844 42.410156 10.449219 C 41.757812 9.140625 40.980469 8.074219 39.855469 6.953125 C 39.285156 6.382812 39.191406 6.300781 38.738281 5.914062 C 37.445312 4.820312 35.554688 3.652344 33.910156 2.9375 C 33.742188 2.867188 33.554688 2.785156 33.496094 2.753906 C 32.828125 2.453125 31.605469 2.011719 30.691406 1.742188 C 29.765625 1.46875 29.691406 1.449219 29.589844 1.429688 C 29.539062 1.421875 29.433594 1.394531 29.351562 1.375 C 29.269531 1.351562 29.164062 1.324219 29.113281 1.316406 C 29.0625 1.304688 28.914062 1.269531 28.785156 1.242188 C 28.652344 1.210938 28.503906 1.179688 28.453125 1.167969 C 28.402344 1.160156 28.320312 1.140625 28.269531 1.128906 C 28.21875 1.117188 28.128906 1.101562 28.066406 1.089844 C 28.007812 1.082031 27.890625 1.058594 27.8125 1.039062 C 27.730469 1.019531 27.597656 0.992188 27.519531 0.980469 C 27.4375 0.96875 27.320312 0.949219 27.261719 0.9375 C 27.199219 0.925781 27.101562 0.914062 27.042969 0.90625 C 26.914062 0.890625 26.683594 0.855469 26.527344 0.824219 C 26.46875 0.816406 26.359375 0.800781 26.289062 0.792969 C 26.21875 0.789062 26.160156 0.78125 26.160156 0.777344 C 26.160156 0.773438 26.105469 0.765625 26.035156 0.757812 C 25.960938 0.753906 25.90625 0.746094 25.90625 0.738281 C 25.90625 0.734375 25.839844 0.726562 25.757812 0.71875 C 25.675781 0.714844 25.519531 0.699219 25.410156 0.683594 C 25.300781 0.671875 25.132812 0.65625 25.039062 0.652344 C 24.949219 0.644531 24.855469 0.632812 24.835938 0.621094 C 24.820312 0.605469 24.714844 0.601562 24.613281 0.609375 C 24.507812 0.613281 24.421875 0.605469 24.421875 0.59375 C 24.421875 0.582031 24.308594 0.570312 24.171875 0.566406 C 24.035156 0.5625 23.769531 0.550781 23.578125 0.542969 C 23.003906 0.507812 21.285156 0.46875 21.265625 0.492188 M 18.796875 3.355469 C 18.792969 3.359375 18.558594 3.375 18.277344 3.386719 C 17.519531 3.417969 17.351562 3.429688 17.066406 3.460938 C 16.679688 3.5 16.644531 3.503906 16.445312 3.53125 C 16.34375 3.546875 16.195312 3.5625 16.113281 3.570312 C 15.949219 3.585938 15.730469 3.617188 15.566406 3.648438 C 15.414062 3.679688 15.292969 3.699219 15.144531 3.71875 C 15.074219 3.726562 14.949219 3.75 14.867188 3.769531 C 14.789062 3.789062 14.65625 3.816406 14.574219 3.828125 C 14.410156 3.851562 13.914062 3.964844 13.492188 4.070312 C 11.71875 4.515625 9.921875 5.222656 8.597656 5.996094 C 7.367188 6.710938 6.207031 7.648438 5.507812 8.488281 C 5.371094 8.652344 5.242188 8.808594 5.214844 8.835938 C 5.089844 8.96875 4.601562 9.757812 4.425781 10.117188 C 4.226562 10.515625 3.980469 11.175781 3.941406 11.40625 C 3.929688 11.46875 3.90625 11.582031 3.886719 11.652344 C 3.808594 11.964844 3.765625 12.378906 3.765625 12.855469 C 3.765625 13.191406 3.777344 13.34375 3.832031 13.777344 C 3.886719 14.179688 4.214844 15.234375 4.351562 15.441406 C 4.378906 15.484375 4.398438 15.546875 4.398438 15.582031 C 4.398438 15.617188 4.414062 15.648438 4.433594 15.648438 C 4.449219 15.648438 4.484375 15.703125 4.511719 15.765625 C 4.6875 16.203125 5.375 17.117188 6.03125 17.777344 C 7.523438 19.285156 9.792969 20.570312 12.355469 21.355469 C 12.792969 21.492188 13.304688 21.636719 13.414062 21.65625 C 13.449219 21.664062 13.550781 21.691406 13.640625 21.714844 C 13.824219 21.769531 13.835938 21.773438 13.988281 21.800781 C 14.050781 21.8125 14.140625 21.832031 14.191406 21.84375 C 14.242188 21.855469 14.324219 21.875 14.375 21.882812 C 14.421875 21.890625 14.539062 21.917969 14.628906 21.9375 C 14.722656 21.957031 14.84375 21.980469 14.90625 21.992188 C 14.964844 22 15.066406 22.019531 15.125 22.03125 C 15.277344 22.0625 15.394531 22.082031 15.546875 22.101562 C 15.667969 22.113281 15.859375 22.144531 16.058594 22.175781 C 16.304688 22.214844 16.464844 22.234375 16.683594 22.253906 C 16.8125 22.265625 16.972656 22.277344 17.03125 22.285156 C 17.449219 22.328125 17.730469 22.351562 17.984375 22.363281 C 18.144531 22.367188 18.277344 22.375 18.277344 22.378906 C 18.277344 22.394531 20.757812 22.398438 20.773438 22.386719 C 20.78125 22.378906 20.914062 22.367188 21.070312 22.359375 C 21.230469 22.351562 21.472656 22.335938 21.613281 22.324219 C 21.757812 22.3125 21.953125 22.292969 22.054688 22.289062 C 22.15625 22.28125 22.238281 22.269531 22.238281 22.269531 C 22.238281 22.265625 22.304688 22.257812 22.386719 22.25 C 22.601562 22.230469 22.832031 22.199219 23.210938 22.136719 C 23.300781 22.121094 23.417969 22.105469 23.464844 22.101562 C 23.515625 22.097656 23.609375 22.085938 23.667969 22.070312 C 23.730469 22.058594 23.828125 22.039062 23.886719 22.03125 C 24.117188 22 24.296875 21.96875 24.421875 21.9375 C 24.492188 21.917969 24.605469 21.894531 24.675781 21.882812 C 24.746094 21.871094 24.988281 21.820312 25.207031 21.769531 C 25.429688 21.714844 25.652344 21.664062 25.703125 21.65625 C 25.753906 21.644531 25.84375 21.621094 25.90625 21.601562 C 25.964844 21.582031 26.070312 21.558594 26.140625 21.546875 C 26.328125 21.515625 26.335938 21.496094 26.238281 21.378906 C 26.191406 21.320312 26.128906 21.214844 26.109375 21.144531 C 26.070312 21.023438 26.058594 21.015625 25.96875 21.050781 C 25.753906 21.132812 24.636719 21.417969 24.308594 21.472656 C 24.238281 21.484375 24.15625 21.5 24.125 21.511719 C 24.097656 21.519531 24.003906 21.535156 23.925781 21.546875 C 23.75 21.574219 23.667969 21.589844 23.523438 21.617188 C 23.460938 21.632812 23.335938 21.652344 23.246094 21.660156 C 23.15625 21.671875 23.03125 21.691406 22.972656 21.699219 C 22.910156 21.710938 22.8125 21.722656 22.75 21.730469 C 22.691406 21.738281 22.558594 21.757812 22.457031 21.769531 C 22.359375 21.785156 22.191406 21.800781 22.089844 21.808594 C 21.992188 21.8125 21.910156 21.824219 21.910156 21.828125 C 21.910156 21.832031 21.816406 21.839844 21.707031 21.84375 C 21.597656 21.847656 21.316406 21.867188 21.082031 21.882812 C 20.539062 21.925781 18.585938 21.925781 18.039062 21.882812 C 17.808594 21.867188 17.527344 21.847656 17.417969 21.84375 C 17.304688 21.839844 17.214844 21.832031 17.214844 21.828125 C 17.214844 21.824219 17.132812 21.8125 17.03125 21.808594 C 16.855469 21.796875 16.699219 21.777344 16.351562 21.730469 C 16.261719 21.714844 16.132812 21.703125 16.070312 21.699219 C 16.003906 21.699219 15.949219 21.6875 15.949219 21.675781 C 15.949219 21.667969 15.894531 21.65625 15.832031 21.652344 C 15.707031 21.648438 15.523438 21.621094 15.363281 21.585938 C 15.3125 21.574219 15.214844 21.554688 15.144531 21.542969 C 15.074219 21.535156 14.992188 21.519531 14.960938 21.507812 C 14.929688 21.5 14.824219 21.484375 14.722656 21.472656 C 14.621094 21.457031 14.527344 21.4375 14.511719 21.429688 C 14.496094 21.421875 14.441406 21.40625 14.390625 21.398438 C 13.992188 21.328125 13.082031 21.089844 12.394531 20.875 C 11.839844 20.703125 10.90625 20.355469 10.375 20.121094 C 10.054688 19.980469 8.945312 19.40625 8.761719 19.289062 C 8.671875 19.230469 8.542969 19.152344 8.472656 19.113281 C 8.367188 19.054688 8.0625 18.847656 7.613281 18.535156 C 7.265625 18.289062 6.75 17.835938 6.277344 17.359375 C 5.972656 17.046875 5.71875 16.777344 5.71875 16.757812 C 5.71875 16.738281 5.695312 16.699219 5.664062 16.667969 C 5.496094 16.5 5.023438 15.757812 4.839844 15.371094 C 4.660156 14.992188 4.515625 14.625 4.488281 14.480469 C 4.484375 14.460938 4.449219 14.328125 4.40625 14.1875 C 4.289062 13.792969 4.25 13.472656 4.25 12.890625 C 4.246094 12.214844 4.296875 11.882812 4.480469 11.265625 C 4.832031 10.101562 5.5625 8.992188 6.625 8.027344 C 6.90625 7.769531 7.210938 7.507812 7.3125 7.4375 C 7.355469 7.40625 7.410156 7.359375 7.4375 7.335938 C 7.484375 7.289062 8.246094 6.777344 8.679688 6.503906 C 8.925781 6.347656 9.898438 5.84375 10.304688 5.664062 C 11.5 5.128906 13.234375 4.574219 14.429688 4.347656 C 14.488281 4.335938 14.585938 4.316406 14.648438 4.304688 C 14.707031 4.289062 14.792969 4.273438 14.832031 4.269531 C 14.871094 4.261719 14.945312 4.25 14.996094 4.238281 C 15.132812 4.207031 15.253906 4.1875 15.4375 4.164062 C 15.527344 4.152344 15.636719 4.136719 15.679688 4.128906 C 15.898438 4.082031 16.257812 4.03125 16.464844 4.011719 C 16.554688 4.007812 16.628906 3.996094 16.628906 3.992188 C 16.628906 3.992188 16.695312 3.980469 16.773438 3.976562 C 16.855469 3.96875 17.027344 3.953125 17.160156 3.941406 C 17.652344 3.890625 17.8125 3.878906 18.1875 3.867188 C 18.398438 3.859375 18.570312 3.851562 18.570312 3.847656 C 18.570312 3.828125 20.515625 3.824219 20.546875 3.839844 C 20.566406 3.851562 20.757812 3.863281 20.96875 3.871094 C 21.34375 3.878906 21.539062 3.894531 21.964844 3.941406 C 22.074219 3.953125 22.238281 3.96875 22.328125 3.976562 C 22.421875 3.980469 22.496094 3.988281 22.496094 3.996094 C 22.496094 4 22.570312 4.007812 22.660156 4.011719 C 22.75 4.019531 22.890625 4.035156 22.972656 4.050781 C 23.050781 4.0625 23.175781 4.082031 23.246094 4.089844 C 23.316406 4.097656 23.425781 4.117188 23.484375 4.132812 C 23.546875 4.144531 23.636719 4.160156 23.6875 4.164062 C 23.769531 4.171875 23.84375 4.183594 24.089844 4.234375 C 24.140625 4.246094 24.238281 4.265625 24.308594 4.277344 C 24.378906 4.285156 24.488281 4.304688 24.546875 4.3125 C 24.84375 4.359375 25.96875 4.648438 26.582031 4.832031 C 27.871094 5.222656 29.613281 5.976562 30.359375 6.46875 C 30.410156 6.5 30.507812 6.558594 30.578125 6.597656 C 30.652344 6.636719 30.902344 6.796875 31.140625 6.960938 C 32.226562 7.695312 33.234375 8.675781 33.832031 9.582031 C 34.054688 9.921875 34.332031 10.429688 34.292969 10.433594 C 34.277344 10.433594 34.285156 10.445312 34.308594 10.460938 C 34.390625 10.511719 34.695312 11.398438 34.777344 11.820312 C 34.8125 11.996094 34.875 12.671875 34.875 12.855469 C 34.875 12.996094 34.84375 13.484375 34.835938 13.484375 C 34.828125 13.484375 34.8125 13.574219 34.785156 13.824219 C 34.722656 14.304688 34.390625 15.160156 33.992188 15.847656 C 33.875 16.054688 33.4375 16.667969 33.296875 16.828125 C 33.242188 16.886719 33.164062 16.984375 33.113281 17.039062 C 33.066406 17.097656 32.960938 17.214844 32.882812 17.296875 C 32.738281 17.449219 32.738281 17.449219 32.824219 17.539062 C 32.871094 17.585938 32.933594 17.664062 32.964844 17.710938 C 33.019531 17.800781 33.019531 17.800781 33.332031 17.472656 C 33.5 17.292969 33.691406 17.078125 33.75 17 C 33.808594 16.917969 33.882812 16.828125 33.914062 16.796875 C 33.945312 16.765625 34.0625 16.597656 34.175781 16.425781 C 34.835938 15.417969 35.125 14.695312 35.300781 13.613281 C 35.332031 13.40625 35.332031 12.277344 35.300781 12.078125 C 35.246094 11.761719 35.234375 11.699219 35.183594 11.46875 C 35.023438 10.753906 34.601562 9.832031 34.128906 9.175781 C 33.523438 8.332031 32.894531 7.683594 32.011719 6.992188 C 31.84375 6.863281 31.257812 6.453125 31.140625 6.382812 C 31.105469 6.359375 31.035156 6.316406 30.984375 6.285156 C 30.785156 6.152344 30.058594 5.738281 29.992188 5.714844 C 29.953125 5.703125 29.898438 5.671875 29.875 5.648438 C 29.753906 5.53125 28.203125 4.871094 27.410156 4.597656 C 26.617188 4.324219 25.261719 3.957031 24.566406 3.828125 C 24.515625 3.820312 24.441406 3.804688 24.402344 3.796875 C 24.363281 3.789062 24.253906 3.769531 24.164062 3.753906 C 24.074219 3.738281 23.972656 3.722656 23.9375 3.714844 C 23.875 3.703125 23.652344 3.664062 23.503906 3.640625 C 23.453125 3.632812 23.335938 3.617188 23.246094 3.609375 C 23.15625 3.601562 23.015625 3.582031 22.933594 3.570312 C 22.332031 3.484375 21.871094 3.433594 21.558594 3.421875 C 21.429688 3.417969 21.320312 3.410156 21.320312 3.40625 C 21.320312 3.382812 18.820312 3.332031 18.796875 3.355469 M 10.445312 7.597656 C 10.4375 7.609375 10.339844 7.625 10.230469 7.632812 C 10.117188 7.644531 9.988281 7.664062 9.9375 7.675781 C 9.886719 7.6875 9.796875 7.703125 9.734375 7.714844 C 9.371094 7.777344 8.632812 8.082031 8.300781 8.304688 C 8.195312 8.375 8.089844 8.433594 8.070312 8.433594 C 8.046875 8.433594 8.03125 8.449219 8.03125 8.464844 C 8.03125 8.480469 7.949219 8.554688 7.851562 8.628906 C 7.523438 8.882812 7.148438 9.292969 6.910156 9.660156 C 6.542969 10.230469 6.28125 10.898438 6.175781 11.542969 C 6.148438 11.699219 6.132812 12.765625 6.15625 12.816406 C 6.164062 12.835938 6.179688 12.898438 6.183594 12.960938 C 6.191406 13.019531 6.207031 13.109375 6.214844 13.15625 C 6.226562 13.203125 6.242188 13.289062 6.253906 13.34375 C 6.28125 13.484375 6.40625 13.851562 6.515625 14.113281 C 6.597656 14.308594 6.945312 14.929688 7 14.980469 C 7.011719 14.992188 7.085938 15.082031 7.167969 15.183594 C 7.871094 16.066406 8.917969 16.679688 10.027344 16.859375 C 10.226562 16.890625 11.15625 16.890625 11.390625 16.855469 C 11.824219 16.792969 12.589844 16.527344 12.925781 16.320312 C 13.40625 16.027344 13.671875 15.8125 14.035156 15.429688 C 14.742188 14.6875 15.21875 13.605469 15.269531 12.640625 C 15.277344 12.523438 15.292969 12.414062 15.304688 12.402344 C 15.335938 12.371094 15.332031 12.113281 15.300781 12.082031 C 15.289062 12.070312 15.273438 11.960938 15.269531 11.84375 C 15.265625 11.730469 15.25 11.582031 15.238281 11.523438 C 15.226562 11.460938 15.207031 11.363281 15.195312 11.300781 C 15.164062 11.121094 14.972656 10.539062 14.871094 10.320312 C 14.6875 9.921875 14.429688 9.503906 14.226562 9.28125 C 14.195312 9.246094 14.125 9.167969 14.070312 9.109375 C 13.726562 8.726562 13.148438 8.296875 12.640625 8.054688 C 12.367188 7.921875 11.816406 7.738281 11.597656 7.710938 C 11.5 7.695312 11.390625 7.671875 11.347656 7.660156 C 11.308594 7.644531 11.195312 7.632812 11.101562 7.636719 C 11.003906 7.636719 10.925781 7.625 10.925781 7.609375 C 10.925781 7.582031 10.472656 7.570312 10.445312 7.597656 M 10.402344 7.828125 C 10.398438 7.832031 10.300781 7.847656 10.191406 7.859375 C 9.957031 7.878906 9.742188 7.917969 9.71875 7.9375 C 9.710938 7.945312 9.796875 7.953125 9.914062 7.953125 C 10.074219 7.953125 10.121094 7.964844 10.121094 8.011719 C 10.121094 8.054688 10.136719 8.058594 10.1875 8.03125 C 10.269531 7.988281 10.304688 8.011719 10.304688 8.105469 C 10.304688 8.152344 10.277344 8.175781 10.230469 8.175781 C 10.1875 8.175781 10.144531 8.203125 10.128906 8.238281 C 10.097656 8.324219 10.046875 8.359375 9.941406 8.359375 C 9.886719 8.359375 9.847656 8.386719 9.835938 8.433594 C 9.824219 8.492188 9.804688 8.5 9.769531 8.46875 C 9.734375 8.441406 9.714844 8.445312 9.691406 8.480469 C 9.65625 8.542969 9.542969 8.578125 9.3125 8.609375 C 9.222656 8.617188 9.078125 8.667969 8.992188 8.71875 C 8.8125 8.828125 8.75 8.808594 8.867188 8.679688 C 8.910156 8.632812 8.945312 8.578125 8.945312 8.558594 C 8.945312 8.515625 9.105469 8.433594 9.179688 8.433594 C 9.207031 8.433594 9.292969 8.386719 9.371094 8.332031 C 9.449219 8.273438 9.542969 8.214844 9.578125 8.203125 C 9.652344 8.171875 9.664062 8.078125 9.597656 8.054688 C 9.574219 8.046875 9.601562 8.046875 9.660156 8.054688 C 9.761719 8.070312 9.761719 8.070312 9.707031 8.011719 C 9.652344 7.957031 9.621094 7.957031 9.488281 7.992188 C 9.402344 8.015625 9.277344 8.066406 9.207031 8.105469 C 9.140625 8.144531 9.023438 8.191406 8.953125 8.207031 C 8.882812 8.21875 8.816406 8.253906 8.808594 8.277344 C 8.78125 8.355469 8.902344 8.328125 9.085938 8.210938 C 9.1875 8.152344 9.289062 8.101562 9.316406 8.101562 C 9.375 8.105469 9.167969 8.285156 9.109375 8.285156 C 9.085938 8.285156 9.039062 8.316406 9.003906 8.359375 C 8.96875 8.398438 8.917969 8.421875 8.894531 8.410156 C 8.867188 8.402344 8.828125 8.417969 8.800781 8.449219 C 8.777344 8.480469 8.726562 8.507812 8.695312 8.507812 C 8.648438 8.503906 8.652344 8.492188 8.71875 8.433594 C 8.867188 8.308594 8.734375 8.320312 8.5 8.453125 C 8.25 8.589844 8.230469 8.632812 8.472656 8.507812 C 8.550781 8.464844 8.617188 8.449219 8.617188 8.46875 C 8.617188 8.488281 8.585938 8.511719 8.546875 8.527344 C 8.507812 8.539062 8.453125 8.574219 8.425781 8.609375 C 8.386719 8.660156 8.386719 8.664062 8.433594 8.640625 C 8.464844 8.621094 8.441406 8.65625 8.386719 8.71875 C 8.332031 8.777344 8.285156 8.84375 8.285156 8.863281 C 8.285156 8.957031 7.953125 9.179688 7.929688 9.105469 C 7.898438 9.019531 7.828125 9.070312 7.753906 9.21875 C 7.714844 9.304688 7.65625 9.378906 7.628906 9.386719 C 7.597656 9.398438 7.589844 9.390625 7.609375 9.359375 C 7.640625 9.308594 7.640625 9.304688 7.398438 9.429688 C 7.269531 9.492188 7.183594 9.574219 7.074219 9.742188 C 6.902344 10 6.636719 10.550781 6.5625 10.800781 C 6.535156 10.894531 6.5 10.984375 6.488281 11.003906 C 6.472656 11.023438 6.449219 11.109375 6.4375 11.191406 C 6.425781 11.269531 6.40625 11.382812 6.398438 11.4375 C 6.390625 11.492188 6.378906 11.546875 6.375 11.566406 C 6.371094 11.582031 6.386719 11.644531 6.410156 11.699219 C 6.433594 11.757812 6.453125 11.886719 6.453125 11.984375 C 6.453125 12.101562 6.472656 12.167969 6.503906 12.179688 C 6.582031 12.210938 6.671875 12.542969 6.652344 12.710938 C 6.636719 12.816406 6.640625 12.839844 6.667969 12.800781 C 6.703125 12.75 6.707031 12.75 6.710938 12.800781 C 6.710938 12.832031 6.789062 12.925781 6.886719 13.011719 C 7.320312 13.382812 7.367188 13.488281 7.242188 13.785156 C 7.210938 13.859375 7.195312 13.945312 7.203125 13.980469 C 7.214844 14.011719 7.230469 14.140625 7.238281 14.269531 C 7.253906 14.449219 7.246094 14.5 7.207031 14.5 C 7.113281 14.5 7.109375 14.570312 7.1875 14.789062 C 7.308594 15.128906 7.902344 15.734375 8.355469 15.984375 C 8.429688 16.023438 8.539062 16.085938 8.597656 16.121094 C 8.75 16.214844 9.257812 16.425781 9.476562 16.488281 C 10.195312 16.6875 10.914062 16.714844 11.605469 16.558594 C 11.664062 16.546875 11.753906 16.527344 11.804688 16.515625 C 12.078125 16.464844 12.601562 16.242188 12.960938 16.023438 C 13.082031 15.953125 13.191406 15.882812 13.199219 15.871094 C 13.210938 15.859375 13.269531 15.816406 13.328125 15.777344 C 13.507812 15.664062 13.972656 15.207031 14.199219 14.925781 C 14.617188 14.402344 14.96875 13.546875 15.050781 12.855469 C 15.101562 12.449219 15.113281 12.167969 15.089844 12.109375 C 15.074219 12.070312 15.054688 11.941406 15.046875 11.820312 C 15.035156 11.542969 14.964844 11.28125 14.898438 11.257812 C 14.871094 11.246094 14.851562 11.210938 14.851562 11.183594 C 14.851562 11.152344 14.824219 11.082031 14.789062 11.023438 C 14.714844 10.894531 14.644531 10.945312 14.636719 11.132812 C 14.628906 11.3125 14.601562 11.496094 14.578125 11.535156 C 14.570312 11.550781 14.582031 11.65625 14.605469 11.769531 C 14.636719 11.898438 14.640625 12.003906 14.621094 12.0625 C 14.589844 12.144531 14.582031 12.140625 14.480469 11.949219 C 14.421875 11.839844 14.335938 11.648438 14.292969 11.523438 C 14.214844 11.300781 14.152344 11.191406 14.152344 11.273438 C 14.152344 11.300781 14.128906 11.320312 14.097656 11.320312 C 14.066406 11.320312 14.042969 11.292969 14.042969 11.265625 C 14.042969 11.234375 14.019531 11.207031 13.992188 11.207031 C 13.964844 11.207031 13.921875 11.183594 13.894531 11.148438 C 13.847656 11.089844 13.792969 11.09375 13.496094 11.152344 C 13.449219 11.160156 13.390625 11.15625 13.367188 11.140625 C 13.347656 11.128906 13.304688 11.113281 13.273438 11.113281 C 13.242188 11.109375 13.183594 11.105469 13.144531 11.101562 C 13.105469 11.097656 13.019531 11.046875 12.953125 10.988281 C 12.890625 10.925781 12.828125 10.890625 12.816406 10.910156 C 12.789062 10.957031 12.976562 11.25 13.019531 11.226562 C 13.035156 11.214844 13.058594 11.242188 13.070312 11.28125 C 13.101562 11.378906 13.179688 11.375 13.25 11.277344 C 13.304688 11.199219 13.304688 11.199219 13.4375 11.28125 C 13.558594 11.359375 13.566406 11.371094 13.542969 11.515625 C 13.511719 11.734375 13.476562 11.792969 13.257812 12.003906 C 13.066406 12.1875 12.816406 12.316406 12.757812 12.257812 C 12.742188 12.238281 12.722656 12.183594 12.714844 12.128906 C 12.707031 12.078125 12.640625 11.980469 12.566406 11.914062 C 12.492188 11.847656 12.398438 11.71875 12.359375 11.628906 C 12.265625 11.417969 12.003906 11.078125 11.980469 11.144531 C 11.96875 11.179688 11.949219 11.175781 11.894531 11.132812 C 11.828125 11.082031 11.828125 11.082031 11.882812 11.171875 C 11.917969 11.222656 11.964844 11.304688 11.992188 11.355469 C 12.023438 11.40625 12.089844 11.5 12.140625 11.558594 C 12.195312 11.621094 12.25 11.710938 12.265625 11.761719 C 12.300781 11.875 12.335938 11.921875 12.550781 12.132812 C 12.644531 12.226562 12.722656 12.324219 12.722656 12.347656 C 12.722656 12.441406 12.847656 12.457031 13.046875 12.386719 C 13.15625 12.347656 13.253906 12.324219 13.261719 12.328125 C 13.304688 12.375 13.042969 13.09375 12.984375 13.09375 C 12.96875 13.09375 12.855469 13.21875 12.730469 13.371094 C 12.574219 13.558594 12.503906 13.667969 12.519531 13.714844 C 12.546875 13.804688 12.589844 14.066406 12.585938 14.128906 C 12.578125 14.359375 12.535156 14.445312 12.339844 14.625 C 12.203125 14.753906 12.136719 14.847656 12.136719 14.90625 C 12.136719 14.964844 12.035156 15.089844 11.796875 15.320312 C 11.480469 15.628906 11.449219 15.652344 11.328125 15.636719 C 11.257812 15.628906 11.164062 15.636719 11.117188 15.652344 C 11.023438 15.6875 10.890625 15.636719 10.890625 15.5625 C 10.890625 15.535156 10.839844 15.457031 10.78125 15.382812 C 10.71875 15.308594 10.664062 15.1875 10.652344 15.113281 C 10.644531 15.039062 10.59375 14.925781 10.539062 14.859375 C 10.453125 14.761719 10.445312 14.722656 10.464844 14.578125 C 10.476562 14.488281 10.507812 14.378906 10.535156 14.335938 C 10.613281 14.21875 10.519531 13.90625 10.339844 13.675781 C 10.175781 13.46875 10.171875 13.457031 10.25 13.390625 C 10.277344 13.367188 10.304688 13.289062 10.304688 13.222656 C 10.304688 13.085938 10.226562 13.039062 10.074219 13.078125 C 10.003906 13.09375 9.972656 13.078125 9.921875 13.003906 C 9.851562 12.894531 9.722656 12.882812 9.519531 12.964844 C 9.445312 12.996094 9.382812 13.007812 9.371094 12.984375 C 9.347656 12.953125 9.117188 12.964844 9.058594 13 C 9.015625 13.027344 8.617188 12.652344 8.617188 12.589844 C 8.617188 12.558594 8.578125 12.480469 8.535156 12.417969 C 8.398438 12.230469 8.363281 12.121094 8.421875 12.078125 C 8.496094 12.023438 8.546875 11.765625 8.503906 11.683594 C 8.453125 11.589844 8.664062 11.3125 8.902344 11.152344 C 9 11.085938 9.097656 10.988281 9.121094 10.9375 C 9.144531 10.886719 9.210938 10.816406 9.269531 10.785156 C 9.421875 10.707031 9.464844 10.503906 9.332031 10.503906 C 9.273438 10.503906 9.277344 10.398438 9.351562 10.203125 C 9.402344 10.054688 9.464844 10.019531 9.59375 10.066406 C 9.753906 10.121094 9.898438 9.894531 9.761719 9.808594 C 9.734375 9.789062 9.769531 9.761719 9.855469 9.730469 C 9.929688 9.703125 10.035156 9.648438 10.089844 9.613281 C 10.144531 9.574219 10.242188 9.523438 10.300781 9.5 C 10.363281 9.480469 10.414062 9.445312 10.414062 9.425781 C 10.414062 9.402344 10.464844 9.394531 10.546875 9.40625 C 10.621094 9.421875 10.753906 9.421875 10.839844 9.40625 C 10.972656 9.390625 10.992188 9.375 10.957031 9.332031 C 10.921875 9.292969 10.929688 9.277344 10.992188 9.261719 C 11.039062 9.25 11.0625 9.21875 11.046875 9.1875 C 11.039062 9.160156 11.042969 9.136719 11.058594 9.132812 C 11.148438 9.125 11.230469 9.101562 11.25 9.078125 C 11.265625 9.066406 11.203125 9.0625 11.117188 9.078125 C 10.992188 9.097656 10.957031 9.089844 10.9375 9.039062 C 10.925781 9.007812 10.933594 8.949219 10.957031 8.910156 C 11.007812 8.828125 11.011719 8.765625 10.964844 8.765625 C 10.941406 8.765625 10.925781 8.789062 10.925781 8.820312 C 10.925781 8.851562 10.894531 8.898438 10.851562 8.925781 C 10.796875 8.964844 10.78125 9.003906 10.796875 9.070312 C 10.8125 9.128906 10.796875 9.1875 10.75 9.246094 C 10.664062 9.355469 10.558594 9.324219 10.558594 9.191406 C 10.558594 9.101562 10.554688 9.097656 10.5 9.15625 C 10.46875 9.1875 10.417969 9.207031 10.386719 9.195312 C 10.359375 9.183594 10.328125 9.175781 10.324219 9.175781 C 10.316406 9.175781 10.320312 9.132812 10.332031 9.082031 C 10.339844 9.03125 10.390625 8.972656 10.445312 8.949219 C 10.5 8.921875 10.589844 8.839844 10.648438 8.761719 C 10.710938 8.671875 10.777344 8.617188 10.828125 8.617188 C 10.871094 8.617188 10.929688 8.605469 10.953125 8.589844 C 10.980469 8.570312 11.097656 8.589844 11.21875 8.628906 C 11.445312 8.707031 11.515625 8.773438 11.339844 8.746094 C 11.238281 8.730469 11.238281 8.730469 11.34375 8.789062 C 11.4375 8.84375 11.449219 8.839844 11.496094 8.777344 C 11.53125 8.726562 11.535156 8.699219 11.5 8.660156 C 11.464844 8.617188 11.472656 8.613281 11.535156 8.632812 C 11.589844 8.648438 11.636719 8.625 11.710938 8.546875 C 11.769531 8.488281 11.832031 8.445312 11.855469 8.449219 C 11.878906 8.453125 11.886719 8.453125 11.871094 8.445312 C 11.816406 8.414062 11.84375 8.324219 11.90625 8.320312 C 11.957031 8.320312 11.9375 8.292969 11.84375 8.207031 L 11.714844 8.09375 L 11.859375 8.117188 C 12.007812 8.144531 12.007812 8.144531 11.933594 8.058594 C 11.894531 8.011719 11.859375 7.96875 11.859375 7.964844 C 11.855469 7.953125 11.582031 7.90625 11.503906 7.902344 C 11.46875 7.902344 11.441406 7.890625 11.441406 7.878906 C 11.441406 7.867188 11.386719 7.855469 11.320312 7.851562 C 11.066406 7.835938 10.414062 7.816406 10.402344 7.828125 M 11.464844 8.238281 C 11.414062 8.316406 11.519531 8.472656 11.621094 8.472656 C 11.714844 8.46875 11.714844 8.46875 11.617188 8.386719 C 11.5625 8.34375 11.515625 8.28125 11.503906 8.25 C 11.496094 8.214844 11.480469 8.210938 11.464844 8.238281 M 9.539062 8.691406 C 9.523438 8.703125 9.511719 8.738281 9.515625 8.765625 C 9.515625 8.878906 9.828125 8.839844 9.828125 8.730469 C 9.828125 8.695312 9.582031 8.664062 9.539062 8.691406 M 9.835938 9.210938 C 9.796875 9.273438 9.796875 9.289062 9.84375 9.308594 C 9.925781 9.339844 9.914062 9.460938 9.828125 9.488281 C 9.785156 9.5 9.753906 9.542969 9.753906 9.582031 C 9.753906 9.636719 9.769531 9.644531 9.855469 9.621094 C 9.910156 9.605469 9.972656 9.597656 9.996094 9.605469 C 10.019531 9.613281 10.046875 9.59375 10.058594 9.5625 C 10.074219 9.527344 10.0625 9.507812 10.027344 9.507812 C 9.996094 9.507812 9.972656 9.46875 9.96875 9.40625 C 9.957031 9.226562 9.953125 9.214844 9.917969 9.175781 C 9.890625 9.152344 9.863281 9.164062 9.835938 9.210938 M 7.890625 9.246094 C 7.8125 9.316406 7.78125 9.394531 7.839844 9.394531 C 7.855469 9.394531 7.90625 9.347656 7.949219 9.285156 C 8.042969 9.160156 8.015625 9.140625 7.890625 9.246094 M 9.597656 9.433594 C 9.5625 9.472656 9.535156 9.515625 9.535156 9.523438 C 9.535156 9.558594 9.699219 9.488281 9.757812 9.425781 C 9.824219 9.359375 9.824219 9.359375 9.742188 9.359375 C 9.695312 9.359375 9.632812 9.390625 9.597656 9.433594 M 17.71875 9.675781 C 17.714844 9.730469 17.691406 9.84375 17.667969 9.929688 C 17.644531 10.011719 17.621094 10.113281 17.613281 10.152344 C 17.609375 10.195312 17.59375 10.269531 17.582031 10.320312 C 17.570312 10.371094 17.550781 10.453125 17.542969 10.503906 C 17.535156 10.554688 17.507812 10.671875 17.488281 10.765625 C 17.46875 10.855469 17.445312 10.972656 17.433594 11.023438 C 17.40625 11.179688 17.324219 11.570312 17.292969 11.71875 C 17.285156 11.753906 17.234375 11.988281 17.183594 12.246094 C 17.128906 12.5 17.070312 12.765625 17.050781 12.835938 C 16.984375 13.066406 16.976562 13.0625 17.40625 13.050781 C 17.839844 13.039062 17.792969 13.074219 17.878906 12.691406 C 17.894531 12.617188 17.976562 12.265625 18.054688 11.945312 C 18.0625 11.910156 18.082031 11.820312 18.09375 11.746094 C 18.105469 11.667969 18.125 11.59375 18.132812 11.574219 C 18.144531 11.554688 18.433594 11.542969 18.777344 11.542969 C 19.398438 11.542969 19.398438 11.542969 19.382812 11.636719 C 19.34375 11.832031 19.242188 12.304688 19.210938 12.410156 C 19.195312 12.472656 19.171875 12.5625 19.160156 12.613281 C 19.140625 12.726562 19.117188 12.824219 19.085938 12.957031 C 19.058594 13.058594 19.058594 13.058594 19.46875 13.058594 C 19.855469 13.058594 19.875 13.054688 19.90625 12.976562 C 19.933594 12.902344 20.074219 12.269531 20.117188 12.023438 C 20.125 11.972656 20.15625 11.824219 20.1875 11.699219 C 20.214844 11.570312 20.25 11.414062 20.257812 11.347656 C 20.269531 11.28125 20.304688 11.125 20.332031 11 C 20.359375 10.875 20.390625 10.734375 20.402344 10.683594 C 20.410156 10.636719 20.429688 10.554688 20.4375 10.503906 C 20.449219 10.453125 20.476562 10.328125 20.496094 10.226562 C 20.515625 10.125 20.542969 10 20.554688 9.949219 C 20.566406 9.898438 20.578125 9.800781 20.582031 9.730469 C 20.589844 9.597656 20.589844 9.597656 20.21875 9.589844 C 19.949219 9.582031 19.839844 9.589844 19.8125 9.625 C 19.78125 9.664062 19.722656 9.894531 19.632812 10.3125 C 19.625 10.355469 19.609375 10.433594 19.597656 10.476562 C 19.585938 10.523438 19.566406 10.601562 19.558594 10.652344 C 19.511719 10.890625 19.554688 10.875 18.898438 10.875 L 18.292969 10.875 L 18.316406 10.699219 C 18.332031 10.601562 18.347656 10.511719 18.359375 10.496094 C 18.367188 10.480469 18.382812 10.421875 18.386719 10.367188 C 18.402344 10.246094 18.433594 10.078125 18.464844 9.949219 C 18.476562 9.898438 18.488281 9.800781 18.492188 9.730469 C 18.5 9.597656 18.5 9.597656 18.113281 9.589844 C 17.726562 9.578125 17.726562 9.578125 17.71875 9.675781 M 21.71875 9.609375 L 21.347656 9.621094 L 21.320312 9.792969 C 21.304688 9.890625 21.285156 9.984375 21.28125 10.007812 C 21.261719 10.074219 21.238281 10.183594 21.140625 10.671875 C 21.085938 10.9375 21.03125 11.1875 21.023438 11.226562 C 21.015625 11.265625 20.996094 11.34375 20.988281 11.394531 C 20.976562 11.445312 20.945312 11.589844 20.917969 11.714844 C 20.890625 11.839844 20.855469 11.988281 20.84375 12.046875 C 20.800781 12.257812 20.789062 12.324219 20.703125 12.6875 L 20.613281 13.058594 L 21.0625 13.058594 C 21.441406 13.058594 21.515625 13.046875 21.5625 12.992188 C 21.617188 12.925781 22.628906 11.621094 22.898438 11.265625 C 23.160156 10.921875 23.292969 10.777344 23.269531 10.855469 C 23.261719 10.898438 23.234375 10.996094 23.214844 11.078125 C 23.179688 11.21875 23.167969 11.273438 23.117188 11.53125 C 23.105469 11.589844 23.085938 11.667969 23.074219 11.707031 C 23.0625 11.75 23.046875 11.808594 23.042969 11.835938 C 23.042969 11.867188 23.027344 11.941406 23.011719 12.003906 C 23 12.066406 22.980469 12.152344 22.972656 12.199219 C 22.960938 12.242188 22.945312 12.308594 22.9375 12.347656 C 22.890625 12.550781 22.808594 12.988281 22.808594 13.019531 C 22.808594 13.042969 22.960938 13.058594 23.234375 13.058594 C 23.46875 13.058594 23.652344 13.046875 23.640625 13.039062 C 23.628906 13.027344 23.644531 12.917969 23.671875 12.796875 C 23.699219 12.679688 23.730469 12.527344 23.742188 12.464844 C 23.753906 12.402344 23.792969 12.210938 23.832031 12.042969 C 23.871094 11.878906 23.910156 11.699219 23.921875 11.652344 C 23.929688 11.601562 23.949219 11.519531 23.960938 11.46875 C 23.96875 11.417969 23.996094 11.292969 24.015625 11.191406 C 24.039062 11.089844 24.0625 10.964844 24.074219 10.914062 C 24.085938 10.863281 24.101562 10.78125 24.113281 10.734375 C 24.121094 10.683594 24.152344 10.542969 24.179688 10.417969 C 24.210938 10.292969 24.242188 10.132812 24.253906 10.0625 C 24.265625 9.992188 24.292969 9.875 24.3125 9.800781 C 24.332031 9.730469 24.347656 9.660156 24.347656 9.644531 C 24.347656 9.628906 24.144531 9.617188 23.898438 9.617188 L 23.449219 9.621094 L 22.917969 10.289062 C 22.625 10.65625 22.359375 10.988281 22.328125 11.023438 C 22.300781 11.058594 22.234375 11.140625 22.183594 11.210938 C 22.085938 11.335938 21.746094 11.773438 21.722656 11.792969 C 21.71875 11.800781 21.734375 11.710938 21.761719 11.589844 C 21.789062 11.472656 21.820312 11.324219 21.828125 11.265625 C 21.839844 11.203125 21.855469 11.117188 21.867188 11.074219 C 21.875 11.03125 21.894531 10.90625 21.910156 10.796875 C 21.921875 10.6875 21.949219 10.570312 21.96875 10.535156 C 21.988281 10.496094 21.996094 10.46875 21.988281 10.46875 C 21.976562 10.46875 21.984375 10.40625 22 10.328125 C 22.019531 10.253906 22.042969 10.140625 22.050781 10.082031 C 22.0625 10.019531 22.082031 9.925781 22.09375 9.875 C 22.140625 9.65625 22.144531 9.621094 22.121094 9.609375 C 22.105469 9.605469 21.925781 9.605469 21.71875 9.609375 M 25.042969 9.820312 C 24.996094 10.054688 24.980469 10.125 24.953125 10.246094 C 24.917969 10.378906 24.898438 10.480469 24.839844 10.78125 C 24.808594 10.945312 24.769531 11.136719 24.75 11.207031 C 24.730469 11.277344 24.707031 11.394531 24.695312 11.46875 C 24.683594 11.539062 24.648438 11.699219 24.621094 11.824219 C 24.566406 12.066406 24.535156 12.207031 24.507812 12.355469 C 24.5 12.410156 24.460938 12.578125 24.425781 12.734375 C 24.386719 12.890625 24.367188 13.027344 24.375 13.039062 C 24.386719 13.050781 24.585938 13.058594 24.820312 13.054688 C 25.246094 13.054688 25.246094 13.054688 25.375 12.882812 C 25.445312 12.792969 25.574219 12.617188 25.667969 12.503906 C 25.757812 12.386719 25.996094 12.078125 26.199219 11.816406 C 26.398438 11.558594 26.660156 11.21875 26.777344 11.066406 C 27.007812 10.765625 27.011719 10.769531 26.929688 11.132812 C 26.917969 11.183594 26.902344 11.269531 26.894531 11.320312 C 26.867188 11.511719 26.835938 11.664062 26.824219 11.6875 C 26.816406 11.699219 26.800781 11.765625 26.789062 11.835938 C 26.777344 11.910156 26.757812 12.007812 26.75 12.058594 C 26.738281 12.109375 26.722656 12.191406 26.714844 12.246094 C 26.703125 12.296875 26.6875 12.386719 26.675781 12.449219 C 26.664062 12.507812 26.648438 12.601562 26.636719 12.652344 C 26.625 12.703125 26.609375 12.800781 26.597656 12.867188 C 26.589844 12.9375 26.574219 13.007812 26.5625 13.027344 C 26.550781 13.042969 26.722656 13.058594 26.941406 13.058594 L 27.339844 13.058594 L 27.382812 12.863281 C 27.445312 12.585938 27.464844 12.496094 27.484375 12.390625 C 27.492188 12.339844 27.519531 12.226562 27.539062 12.132812 C 27.578125 11.945312 27.605469 11.824219 27.632812 11.6875 C 27.640625 11.636719 27.683594 11.460938 27.722656 11.292969 C 27.761719 11.125 27.800781 10.949219 27.808594 10.902344 C 27.820312 10.859375 27.835938 10.777344 27.847656 10.726562 C 27.855469 10.675781 27.882812 10.535156 27.90625 10.414062 C 27.941406 10.210938 28.023438 9.851562 28.074219 9.683594 C 28.089844 9.625 28.050781 9.617188 27.632812 9.617188 L 27.175781 9.617188 L 26.324219 10.691406 C 25.859375 11.28125 25.46875 11.761719 25.460938 11.761719 C 25.445312 11.761719 25.453125 11.710938 25.5 11.503906 C 25.511719 11.453125 25.53125 11.355469 25.539062 11.28125 C 25.550781 11.210938 25.566406 11.132812 25.574219 11.105469 C 25.585938 11.082031 25.601562 10.980469 25.613281 10.882812 C 25.628906 10.789062 25.652344 10.679688 25.671875 10.644531 C 25.691406 10.609375 25.699219 10.578125 25.691406 10.578125 C 25.679688 10.578125 25.6875 10.515625 25.707031 10.441406 C 25.722656 10.363281 25.75 10.226562 25.761719 10.136719 C 25.773438 10.042969 25.792969 9.953125 25.804688 9.9375 C 25.816406 9.917969 25.832031 9.839844 25.839844 9.761719 C 25.855469 9.621094 25.855469 9.621094 25.472656 9.609375 L 25.085938 9.597656 L 25.042969 9.820312 M 28.824219 9.617188 C 28.8125 9.628906 28.800781 9.652344 28.796875 9.671875 C 28.792969 9.695312 28.765625 9.835938 28.730469 9.988281 C 28.699219 10.140625 28.664062 10.300781 28.65625 10.347656 C 28.644531 10.394531 28.628906 10.464844 28.617188 10.503906 C 28.597656 10.59375 28.578125 10.683594 28.527344 10.929688 C 28.507812 11.03125 28.480469 11.15625 28.46875 11.207031 C 28.457031 11.257812 28.441406 11.339844 28.433594 11.386719 C 28.421875 11.4375 28.390625 11.578125 28.363281 11.703125 C 28.332031 11.828125 28.300781 11.988281 28.289062 12.058594 C 28.277344 12.128906 28.25 12.246094 28.234375 12.316406 C 28.214844 12.390625 28.191406 12.503906 28.179688 12.578125 C 28.164062 12.648438 28.140625 12.773438 28.121094 12.855469 C 28.105469 12.9375 28.089844 13.015625 28.085938 13.03125 C 28.085938 13.046875 28.273438 13.058594 28.503906 13.058594 L 28.921875 13.058594 L 28.949219 12.882812 C 28.964844 12.785156 28.984375 12.691406 28.988281 12.667969 C 29 12.621094 29.027344 12.503906 29.082031 12.246094 C 29.140625 11.941406 29.144531 11.933594 29.148438 11.882812 C 29.148438 11.84375 29.28125 11.835938 29.765625 11.839844 C 30.296875 11.847656 30.410156 11.835938 30.609375 11.769531 C 31.164062 11.589844 31.480469 11.175781 31.507812 10.578125 C 31.519531 10.378906 31.441406 10.082031 31.339844 9.941406 C 31.246094 9.816406 31.035156 9.675781 30.890625 9.640625 C 30.761719 9.613281 28.863281 9.589844 28.824219 9.617188 M 12.417969 9.757812 C 12.363281 9.792969 12.320312 9.835938 12.320312 9.855469 C 12.320312 9.878906 12.382812 9.953125 12.460938 10.023438 C 12.542969 10.097656 12.613281 10.207031 12.628906 10.269531 C 12.65625 10.398438 12.800781 10.46875 12.890625 10.394531 C 12.933594 10.359375 12.925781 10.335938 12.867188 10.269531 C 12.824219 10.226562 12.800781 10.164062 12.808594 10.125 C 12.824219 10.066406 12.792969 10.042969 12.714844 10.058594 C 12.699219 10.058594 12.6875 10.046875 12.6875 10.027344 C 12.6875 10.011719 12.648438 9.984375 12.605469 9.972656 C 12.523438 9.949219 12.523438 9.949219 12.601562 9.878906 C 12.664062 9.828125 12.675781 9.800781 12.640625 9.777344 C 12.546875 9.703125 12.515625 9.699219 12.417969 9.757812 M 11.492188 9.976562 C 11.480469 10.035156 11.460938 10.105469 11.449219 10.136719 C 11.4375 10.167969 11.421875 10.222656 11.421875 10.257812 C 11.414062 10.3125 11.429688 10.320312 11.527344 10.300781 C 11.589844 10.285156 11.652344 10.253906 11.667969 10.230469 C 11.6875 10.195312 11.746094 10.191406 11.882812 10.214844 C 11.988281 10.230469 12.089844 10.234375 12.105469 10.222656 C 12.179688 10.179688 12.128906 10.070312 12.007812 10.011719 C 11.933594 9.976562 11.886719 9.933594 11.898438 9.914062 C 11.941406 9.84375 11.847656 9.875 11.773438 9.953125 C 11.699219 10.035156 11.605469 10.019531 11.636719 9.929688 C 11.652344 9.894531 11.632812 9.875 11.585938 9.875 C 11.539062 9.875 11.507812 9.910156 11.492188 9.976562 M 10.523438 10.023438 C 10.523438 10.042969 10.582031 10.117188 10.648438 10.1875 C 10.78125 10.316406 10.859375 10.503906 10.785156 10.503906 C 10.761719 10.503906 10.753906 10.484375 10.765625 10.457031 C 10.773438 10.425781 10.738281 10.375 10.683594 10.339844 C 10.628906 10.300781 10.535156 10.222656 10.480469 10.160156 C 10.390625 10.058594 10.371094 10.054688 10.285156 10.09375 C 10.234375 10.117188 10.164062 10.136719 10.136719 10.136719 C 10.105469 10.136719 9.984375 10.234375 9.867188 10.359375 C 9.71875 10.515625 9.636719 10.574219 9.597656 10.558594 C 9.515625 10.527344 9.457031 10.570312 9.484375 10.636719 C 9.507812 10.703125 9.617188 10.707031 9.746094 10.640625 C 9.800781 10.613281 9.972656 10.582031 10.128906 10.570312 C 10.4375 10.550781 10.441406 10.554688 10.417969 10.8125 C 10.417969 10.847656 10.4375 10.878906 10.46875 10.878906 C 10.597656 10.890625 10.746094 10.949219 10.859375 11.027344 C 10.988281 11.121094 11.035156 11.117188 11.035156 11.011719 C 11.035156 10.964844 11.046875 10.917969 11.054688 10.90625 C 11.066406 10.894531 11.179688 10.914062 11.304688 10.949219 C 11.445312 10.988281 11.601562 11.007812 11.714844 10.996094 C 11.816406 10.984375 11.902344 10.976562 11.90625 10.972656 C 11.9375 10.941406 11.996094 10.613281 11.976562 10.5625 C 11.953125 10.503906 11.945312 10.5 11.886719 10.550781 C 11.804688 10.625 11.511719 10.617188 11.476562 10.542969 C 11.359375 10.285156 11.277344 10.230469 11.199219 10.339844 C 11.167969 10.378906 11.152344 10.441406 11.160156 10.476562 C 11.167969 10.511719 11.160156 10.550781 11.144531 10.5625 C 11.125 10.574219 11.109375 10.5625 11.109375 10.53125 C 11.109375 10.503906 11.070312 10.441406 11.019531 10.394531 C 10.96875 10.347656 10.925781 10.285156 10.925781 10.257812 C 10.925781 10.230469 10.878906 10.1875 10.820312 10.167969 C 10.761719 10.148438 10.707031 10.097656 10.695312 10.058594 C 10.675781 9.988281 10.523438 9.953125 10.523438 10.023438 M 29.503906 10.238281 C 29.496094 10.253906 29.476562 10.332031 29.464844 10.414062 C 29.453125 10.496094 29.425781 10.625 29.402344 10.703125 C 29.382812 10.777344 29.359375 10.898438 29.351562 10.96875 C 29.339844 11.039062 29.328125 11.117188 29.324219 11.140625 C 29.316406 11.175781 29.398438 11.191406 29.625 11.199219 C 29.792969 11.207031 29.957031 11.199219 29.992188 11.1875 C 30.023438 11.171875 30.105469 11.15625 30.171875 11.148438 C 30.472656 11.121094 30.679688 10.847656 30.617188 10.558594 C 30.574219 10.371094 30.492188 10.292969 30.28125 10.25 C 30.074219 10.203125 29.53125 10.195312 29.503906 10.238281 M 12.035156 13.398438 C 11.972656 13.460938 11.980469 13.574219 12.042969 13.574219 C 12.105469 13.574219 12.1875 13.441406 12.15625 13.390625 C 12.125 13.34375 12.085938 13.34375 12.035156 13.398438 M 12.105469 14.136719 C 12.105469 14.183594 12.121094 14.265625 12.136719 14.316406 C 12.160156 14.394531 12.167969 14.386719 12.167969 14.253906 C 12.171875 14.167969 12.15625 14.085938 12.136719 14.074219 C 12.117188 14.0625 12.101562 14.089844 12.105469 14.136719 M 13.042969 14.234375 C 13.007812 14.296875 12.964844 14.351562 12.949219 14.351562 C 12.871094 14.351562 12.722656 14.539062 12.722656 14.636719 C 12.722656 14.695312 12.695312 14.78125 12.664062 14.828125 C 12.601562 14.921875 12.617188 15.019531 12.703125 15.019531 C 12.78125 15.019531 12.941406 14.863281 12.960938 14.773438 C 12.96875 14.730469 13.007812 14.609375 13.054688 14.507812 C 13.097656 14.40625 13.125 14.277344 13.121094 14.21875 C 13.105469 14.113281 13.105469 14.113281 13.042969 14.234375 M 26.582031 14.429688 C 26.582031 14.449219 26.65625 14.652344 26.746094 14.882812 C 26.835938 15.109375 26.976562 15.488281 27.0625 15.722656 C 27.144531 15.957031 27.246094 16.214844 27.285156 16.300781 C 27.320312 16.386719 27.351562 16.480469 27.351562 16.507812 C 27.351562 16.535156 27.367188 16.574219 27.382812 16.59375 C 27.402344 16.613281 27.503906 16.867188 27.609375 17.164062 C 27.714844 17.460938 27.832031 17.765625 27.867188 17.847656 C 27.902344 17.929688 27.9375 18.027344 27.953125 18.0625 C 27.972656 18.121094 28.050781 18.125 28.855469 18.125 L 29.734375 18.125 L 29.675781 17.988281 C 29.644531 17.910156 29.566406 17.730469 29.5 17.589844 C 29.355469 17.269531 29.285156 17.113281 28.789062 16 C 28.34375 15 28.394531 15.058594 27.847656 14.875 C 27.707031 14.824219 27.535156 14.761719 27.464844 14.730469 C 27.234375 14.636719 27.191406 14.617188 27.078125 14.582031 C 27.019531 14.5625 26.882812 14.511719 26.777344 14.46875 C 26.671875 14.425781 26.582031 14.40625 26.582031 14.429688 M 31.523438 15.238281 C 30.945312 15.46875 30.335938 16.136719 30.195312 16.695312 C 30.140625 16.929688 30.140625 16.957031 30.199219 17.136719 C 30.308594 17.46875 30.589844 17.609375 30.945312 17.515625 C 31.277344 17.425781 31.394531 17.375 31.625 17.214844 C 32 16.953125 32.164062 16.761719 32.363281 16.332031 C 32.476562 16.097656 32.496094 16.015625 32.496094 15.792969 C 32.496094 15.492188 32.410156 15.324219 32.203125 15.226562 C 32.042969 15.148438 31.738281 15.152344 31.523438 15.238281 M 31.527344 17.613281 C 31.226562 17.738281 29.679688 18.378906 28.773438 18.75 C 28.273438 18.957031 27.8125 19.160156 27.753906 19.207031 C 27.695312 19.25 27.625 19.339844 27.601562 19.410156 C 27.570312 19.496094 27.535156 19.53125 27.480469 19.53125 C 27.339844 19.53125 26.824219 19.78125 26.742188 19.890625 C 26.386719 20.355469 26.707031 21.523438 27.308594 21.945312 C 27.542969 22.105469 27.675781 22.101562 28.0625 21.925781 C 28.386719 21.773438 28.386719 21.773438 28.5 21.84375 C 28.667969 21.945312 28.875 21.9375 29.164062 21.816406 C 29.304688 21.761719 29.429688 21.714844 29.449219 21.714844 C 29.484375 21.714844 29.539062 21.835938 29.847656 22.582031 C 29.972656 22.886719 30.128906 23.269531 30.195312 23.433594 C 30.265625 23.597656 30.460938 24.078125 30.636719 24.507812 C 30.8125 24.933594 31.003906 25.398438 31.0625 25.542969 C 31.121094 25.683594 31.21875 25.929688 31.28125 26.089844 C 31.34375 26.246094 31.410156 26.375 31.433594 26.375 C 31.476562 26.375 31.730469 26.296875 33.191406 25.859375 C 33.792969 25.675781 33.84375 25.65625 33.820312 25.585938 C 33.808594 25.542969 33.699219 25.300781 33.578125 25.046875 C 33.132812 24.105469 33.003906 23.832031 32.835938 23.472656 C 32.738281 23.265625 32.582031 22.933594 32.484375 22.730469 C 32.390625 22.527344 32.246094 22.21875 32.164062 22.046875 C 32.082031 21.875 31.925781 21.535156 31.8125 21.292969 C 31.597656 20.835938 31.582031 20.789062 31.644531 20.789062 C 31.75 20.789062 32.769531 20.328125 32.839844 20.25 C 32.882812 20.203125 32.957031 20.066406 33 19.949219 C 33.085938 19.71875 33.082031 19.578125 32.980469 19.070312 C 32.90625 18.699219 32.5625 18.082031 32.273438 17.808594 C 32.015625 17.5625 31.785156 17.503906 31.527344 17.613281 M 31.519531 17.789062 C 31.507812 17.804688 31.425781 17.839844 31.332031 17.867188 C 31.152344 17.917969 31.125 17.960938 31.238281 17.996094 C 31.316406 18.019531 31.570312 18.269531 31.710938 18.453125 C 31.816406 18.597656 32.023438 19.015625 32.097656 19.246094 C 32.214844 19.59375 32.242188 19.945312 32.175781 20.207031 C 32.152344 20.304688 32.140625 20.382812 32.152344 20.382812 C 32.164062 20.382812 32.292969 20.339844 32.4375 20.285156 C 32.664062 20.203125 32.707031 20.171875 32.78125 20.039062 C 32.90625 19.816406 32.898438 19.363281 32.765625 18.96875 C 32.574219 18.410156 32.234375 17.925781 31.949219 17.808594 C 31.816406 17.75 31.546875 17.738281 31.519531 17.789062 M 26.089844 17.863281 C 25.753906 17.964844 25.664062 18.007812 25.453125 18.167969 C 24.679688 18.757812 24.261719 19.632812 24.515625 20.144531 C 24.824219 20.773438 26.140625 20.316406 26.726562 19.375 C 26.972656 18.980469 27.082031 18.472656 26.980469 18.207031 C 26.921875 18.039062 26.765625 17.910156 26.5625 17.847656 C 26.335938 17.78125 26.363281 17.78125 26.089844 17.863281 M 30.4375 18.242188 L 30.128906 18.386719 L 30.273438 18.496094 C 30.578125 18.722656 30.878906 19.160156 31.039062 19.625 C 31.128906 19.875 31.144531 19.980469 31.144531 20.308594 C 31.148438 20.769531 31.167969 20.792969 31.488281 20.675781 C 31.726562 20.59375 31.84375 20.515625 31.953125 20.367188 C 32.0625 20.21875 32.054688 19.613281 31.9375 19.273438 C 31.746094 18.734375 31.480469 18.367188 31.144531 18.175781 C 30.929688 18.054688 30.796875 18.070312 30.4375 18.242188 M 29.78125 18.539062 C 29.789062 18.554688 29.847656 18.605469 29.917969 18.652344 C 30.109375 18.78125 30.417969 19.1875 30.527344 19.457031 C 30.582031 19.589844 30.648438 19.746094 30.671875 19.808594 C 30.730469 19.945312 30.773438 20.109375 30.78125 20.234375 C 30.785156 20.285156 30.800781 20.351562 30.8125 20.382812 C 30.824219 20.414062 30.839844 20.488281 30.84375 20.546875 C 30.851562 20.617188 30.875 20.660156 30.910156 20.660156 C 30.949219 20.660156 30.960938 20.601562 30.960938 20.382812 C 30.957031 20.054688 30.933594 19.933594 30.832031 19.652344 C 30.675781 19.230469 30.347656 18.753906 30.09375 18.589844 C 29.996094 18.523438 29.761719 18.484375 29.78125 18.539062 M 28.949219 18.851562 C 28.207031 19.160156 28.269531 19.121094 28.402344 19.191406 C 28.589844 19.292969 28.6875 19.390625 28.851562 19.632812 C 29.015625 19.875 29.222656 20.292969 29.222656 20.375 C 29.222656 20.425781 29.363281 20.488281 29.46875 20.488281 C 29.503906 20.488281 29.59375 20.496094 29.664062 20.507812 C 29.875 20.542969 30.074219 20.570312 30.25 20.585938 C 30.339844 20.59375 30.472656 20.609375 30.539062 20.621094 C 30.664062 20.636719 30.664062 20.636719 30.636719 20.464844 C 30.625 20.367188 30.605469 20.242188 30.597656 20.183594 C 30.546875 19.816406 30.277344 19.273438 30 18.96875 C 29.652344 18.59375 29.589844 18.585938 28.949219 18.851562 M 27.917969 19.277344 C 27.875 19.300781 27.820312 19.355469 27.800781 19.40625 C 27.753906 19.5 27.789062 19.554688 27.96875 19.664062 C 28.242188 19.828125 28.582031 20.496094 28.613281 20.9375 C 28.621094 21.007812 28.636719 21.097656 28.652344 21.132812 C 28.667969 21.171875 28.664062 21.21875 28.636719 21.25 C 28.613281 21.28125 28.601562 21.332031 28.613281 21.371094 C 28.625 21.40625 28.613281 21.480469 28.582031 21.539062 C 28.535156 21.636719 28.535156 21.644531 28.628906 21.6875 C 28.792969 21.769531 28.957031 21.746094 29.058594 21.625 C 29.164062 21.503906 29.160156 21.519531 29.167969 21.1875 C 29.167969 21.050781 29.15625 20.9375 29.140625 20.9375 C 29.125 20.9375 29.117188 20.921875 29.128906 20.902344 C 29.144531 20.882812 29.136719 20.835938 29.117188 20.800781 C 29.011719 20.585938 28.964844 20.4375 29 20.425781 C 29.050781 20.410156 28.925781 20.097656 28.769531 19.851562 C 28.65625 19.671875 28.273438 19.277344 28.207031 19.269531 C 28.191406 19.269531 28.136719 19.261719 28.085938 19.253906 C 28.035156 19.246094 27.960938 19.257812 27.917969 19.277344 M 27.308594 19.761719 C 27.230469 19.804688 27.171875 19.851562 27.171875 19.863281 C 27.171875 19.875 27.214844 19.90625 27.269531 19.929688 C 27.53125 20.050781 27.738281 20.351562 27.910156 20.859375 C 27.953125 20.992188 27.992188 21.152344 27.996094 21.214844 C 27.996094 21.277344 28.011719 21.347656 28.023438 21.371094 C 28.039062 21.394531 28.035156 21.421875 28.011719 21.4375 C 27.992188 21.449219 27.984375 21.476562 27.996094 21.492188 C 28.007812 21.511719 28 21.585938 27.984375 21.652344 C 27.949219 21.777344 27.949219 21.777344 28.132812 21.699219 C 28.382812 21.59375 28.429688 21.511719 28.441406 21.140625 C 28.453125 20.820312 28.382812 20.492188 28.285156 20.378906 C 28.257812 20.347656 28.234375 20.304688 28.234375 20.28125 C 28.234375 20.257812 28.222656 20.234375 28.207031 20.226562 C 28.191406 20.222656 28.121094 20.144531 28.050781 20.054688 C 27.890625 19.847656 27.660156 19.679688 27.539062 19.679688 C 27.488281 19.679688 27.382812 19.71875 27.308594 19.761719 "/>
</g>
</svg>
